<svg width="64" height="64" viewBox="0 0 64 64" fill="none" xmlns="http://www.w3.org/2000/svg">
  <rect width="64" height="64" rx="16" fill="#4F46E5"/>
  <path d="M21 18C18.7909 18 17 19.7909 17 22V42C17 44.2091 18.7909 46 21 46H43C45.2091 46 47 44.2091 47 42V22C47 19.7909 45.2091 18 43 18H21Z" fill="white" fill-opacity="0.16"/>
  <path d="M25 16C25 14.8954 25.8954 14 27 14C28.1046 14 29 14.8954 29 16V20H25V16Z" fill="white"/>
  <path d="M35 16C35 14.8954 35.8954 14 37 14C38.1046 14 39 14.8954 39 16V20H35V16Z" fill="white"/>
  <path d="M22 24C22 22.8954 22.8954 22 24 22H40C41.1046 22 42 22.8954 42 24V41C42 42.1046 41.1046 43 40 43H24C22.8954 43 22 42.1046 22 41V24Z" fill="white"/>
  <path d="M31 27C31 26.4477 31.4477 26 32 26C32.5523 26 33 26.4477 33 27V31H37C37.5523 31 38 31.4477 38 32C38 32.5523 37.5523 33 37 33H33V37C33 37.5523 32.5523 38 32 38C31.4477 38 31 37.5523 31 37V33H27C26.4477 33 26 32.5523 26 32C26 31.4477 26.4477 31 27 31H31V27Z" fill="#4F46E5"/>
</svg>
